<svg xmlns="http://www.w3.org/2000/svg" viewBox="0 0 500 500"><g id="freepik--background-complete--inject-159"><path d="M52.08,240.81l1.66,5.64a2.78,2.78,0,0,0,1.9,1.89L61.27,250l-5.63,1.66a2.78,2.78,0,0,0-1.9,1.89l-1.66,5.64-1.65-5.64a2.8,2.8,0,0,0-1.9-1.89L42.89,250l5.64-1.66a2.8,2.8,0,0,0,1.9-1.89Z" style="fill:#e0e0e0"></path><path d="M257.75,443.05l1.65,5.63a2.81,2.81,0,0,0,1.9,1.9l5.64,1.65-5.64,1.66a2.81,2.81,0,0,0-1.9,1.9l-1.65,5.63-1.66-5.63a2.79,2.79,0,0,0-1.9-1.9l-5.63-1.66,5.63-1.65a2.79,2.79,0,0,0,1.9-1.9Z" style="fill:#e0e0e0"></path><path d="M66.78,287.13l1.1,3.72a1.86,1.86,0,0,0,1.25,1.26l3.73,1.09-3.73,1.1a1.87,1.87,0,0,0-1.25,1.25l-1.1,3.73-1.09-3.73a1.86,1.86,0,0,0-1.26-1.25l-3.72-1.1,3.72-1.09a1.85,1.85,0,0,0,1.26-1.26Z" style="fill:#e0e0e0"></path><path d="M412.13,259.1l1.66,5.63a2.8,2.8,0,0,0,1.89,1.9l5.64,1.65-5.64,1.66a2.78,2.78,0,0,0-1.89,1.9l-1.66,5.63-1.66-5.63a2.78,2.78,0,0,0-1.89-1.9l-5.64-1.66,5.64-1.65a2.8,2.8,0,0,0,1.89-1.9Z" style="fill:#e0e0e0"></path><path d="M373.09,66l1.66,5.64a2.81,2.81,0,0,0,1.9,1.9l5.63,1.65-5.63,1.66a2.79,2.79,0,0,0-1.9,1.9l-1.66,5.63-1.65-5.63a2.81,2.81,0,0,0-1.9-1.9l-5.63-1.66,5.63-1.65a2.83,2.83,0,0,0,1.9-1.9Z" style="fill:#e0e0e0"></path><path d="M355,130.45l1.79,6.09a3,3,0,0,0,2.06,2.06l6.09,1.79-6.09,1.79a3,3,0,0,0-2.06,2L355,150.32l-1.79-6.09a3,3,0,0,0-2.05-2L345,140.39l6.09-1.79a3,3,0,0,0,2.05-2.06Z" style="fill:#e0e0e0"></path><path d="M379.17,275.34l1.09,3.72a1.87,1.87,0,0,0,1.26,1.26l3.72,1.09-3.72,1.09a1.85,1.85,0,0,0-1.26,1.26l-1.09,3.72-1.1-3.72a1.84,1.84,0,0,0-1.25-1.26l-3.73-1.09,3.73-1.09a1.86,1.86,0,0,0,1.25-1.26Z" style="fill:#e0e0e0"></path><path d="M78.26,177.34l1.09,3.72a1.85,1.85,0,0,0,1.26,1.26l3.72,1.09-3.72,1.1a1.84,1.84,0,0,0-1.26,1.25l-1.09,3.73-1.1-3.73a1.83,1.83,0,0,0-1.25-1.25l-3.73-1.1,3.73-1.09a1.84,1.84,0,0,0,1.25-1.26Z" style="fill:#e0e0e0"></path><path d="M196.84,28.36l1.09,3.73a1.86,1.86,0,0,0,1.26,1.25l3.72,1.1-3.72,1.09a1.85,1.85,0,0,0-1.26,1.26l-1.09,3.72-1.1-3.72a1.84,1.84,0,0,0-1.25-1.26l-3.73-1.09,3.73-1.1a1.85,1.85,0,0,0,1.25-1.25Z" style="fill:#e0e0e0"></path><path d="M127.49,61.05l1.88,6.39a3.17,3.17,0,0,0,2.15,2.16l6.39,1.87-6.39,1.88a3.14,3.14,0,0,0-2.15,2.15l-1.88,6.39-1.88-6.39a3.14,3.14,0,0,0-2.15-2.15l-6.39-1.88,6.39-1.87a3.17,3.17,0,0,0,2.15-2.16Z" style="fill:#e0e0e0"></path><path d="M136.8,131.24l1.1,3.73a1.85,1.85,0,0,0,1.25,1.25l3.73,1.1-3.73,1.09a1.86,1.86,0,0,0-1.25,1.26l-1.1,3.72-1.09-3.72a1.85,1.85,0,0,0-1.26-1.26l-3.72-1.09,3.72-1.1a1.84,1.84,0,0,0,1.26-1.25Z" style="fill:#e0e0e0"></path><path d="M441.55,351.88c-39.29-8.34-70,11.86-70,11.86C402.14,378.61,441.55,351.88,441.55,351.88Z" style="fill:#e0e0e0"></path><path d="M329.84,349.9c0,24.65,16.53,41.71,16.53,41.71C351.58,371.74,329.84,349.9,329.84,349.9Z" style="fill:#e0e0e0"></path><path d="M355.73,389c29.06,5.7,53-9.72,53-9.72C386.48,368.6,355.73,389,355.73,389Z" style="fill:#e0e0e0"></path><path d="M387.88,338c-.45-.32-13.11,17-28.28,38.58S332.5,416,333,416.34s13.11-17,28.28-38.59S388.33,338.34,387.88,338Z" style="fill:#e0e0e0"></path><path d="M431.11,291.17S387.9,306.41,382.4,347C382.4,347,419.44,334.48,431.11,291.17Z" style="fill:#e0e0e0"></path><path d="M366.07,295.88s-25.61,38-5.85,73.84C360.22,369.72,382.52,337.61,366.07,295.88Z" style="fill:#e0e0e0"></path><path d="M111.65,314c-14.06,38.21,1.75,71.92,1.75,71.92C132.75,357.37,111.65,314,111.65,314Z" style="fill:#e0e0e0"></path><path d="M95.69,431.9c24.72,3.59,44.24-10.54,44.24-10.54C120.75,413.25,95.69,431.9,95.69,431.9Z" style="fill:#e0e0e0"></path><path d="M138.67,411.59c9.93-28.32-2.08-54.55-2.08-54.55C122.66,377.78,138.67,411.59,138.67,411.59Z" style="fill:#e0e0e0"></path><path d="M92.19,371.94c-.38.41,15.11,15.62,34.61,34s35.61,32.91,36,32.51-15.11-15.62-34.61-34S92.57,371.54,92.19,371.94Z" style="fill:#e0e0e0"></path><path d="M51.45,321.78s9,45.56,48.92,57C100.37,378.74,93.21,339.76,51.45,321.78Z" style="fill:#e0e0e0"></path><path d="M46.74,387.71s34.4,31.2,73.24,16.58C120,404.29,91,377.26,46.74,387.71Z" style="fill:#e0e0e0"></path><path d="M152.82,146.57c-17,34.83-5.24,68.27-5.24,68.27C168.63,189.71,152.82,146.57,152.82,146.57Z" style="fill:#e0e0e0"></path><path d="M126.4,256.72c23.06,5.77,42.9-5.74,42.9-5.74C151.91,241.47,126.4,256.72,126.4,256.72Z" style="fill:#e0e0e0"></path><path d="M169,241.61c12.11-25.86,3.26-51.85,3.26-51.85C157.13,208.07,169,241.61,169,241.61Z" style="fill:#e0e0e0"></path><path d="M128.83,199.61c-.4.35,12.82,16.24,29.51,35.49s30.56,34.57,31,34.22-12.81-16.23-29.51-35.48S129.23,199.27,128.83,199.61Z" style="fill:#e0e0e0"></path><path d="M95.07,148.21s4.17,44,40.85,58.63C135.92,206.84,132.88,169.25,95.07,148.21Z" style="fill:#e0e0e0"></path><path d="M84.29,210.19S113.87,243,152,232.91C152,232.91,127.19,204.54,84.29,210.19Z" style="fill:#e0e0e0"></path><path d="M445.41,223c-35.85-14.71-68.46-.86-68.46-.86C403.38,241.5,445.41,223,445.41,223Z" style="fill:#e0e0e0"></path><path d="M333.8,203.64c-4.28,23.39,8.47,42.45,8.47,42.45C350.65,228.13,333.8,203.64,333.8,203.64Z" style="fill:#e0e0e0"></path><path d="M351.61,245.23c26.58,10.44,51.94-.06,51.94-.06C384.32,231.2,351.61,245.23,351.61,245.23Z" style="fill:#e0e0e0"></path><path d="M390.94,202.42c-.37-.38-15.38,13.83-33.52,31.72s-32.54,32.71-32.17,33.09,15.38-13.82,33.52-31.72S391.31,202.8,390.94,202.42Z" style="fill:#e0e0e0"></path><path d="M440.07,165.44s-43.64,7-55.88,44.52C384.19,210,421.5,204.52,440.07,165.44Z" style="fill:#e0e0e0"></path><path d="M377.54,158.65s-30.88,31.62-18.34,69.06C359.2,227.71,385.92,201.1,377.54,158.65Z" style="fill:#e0e0e0"></path></g><g id="freepik--Lines--inject-159"><path d="M254,73.57c-.15,0-.26-11.5-.26-25.67s.11-25.68.26-25.68.26,11.5.26,25.68S254.17,73.57,254,73.57Z" style="fill:#263238"></path><path d="M205.48,87.35c-.1.1-7.29-6.93-16.06-15.69s-15.79-16-15.69-16.06,7.29,6.92,16.06,15.69S205.59,87.25,205.48,87.35Z" style="fill:#263238"></path><path d="M327.69,56.07c.1.1-7.77,8.26-17.59,18.23s-17.86,18-18,17.86,7.77-8.26,17.59-18.23S327.59,56,327.69,56.07Z" style="fill:#263238"></path><path d="M224.72,73a82.55,82.55,0,0,1-4.78-8,83.76,83.76,0,0,1-4.34-8.27,82.83,82.83,0,0,1,4.79,8A82.26,82.26,0,0,1,224.72,73Z" style="fill:#263238"></path><path d="M292.09,53.58a34.27,34.27,0,0,1-2,3c-1.24,1.84-2.9,4.44-4.55,7.39s-3,5.73-3.93,7.75A36,36,0,0,1,280.1,75a3.13,3.13,0,0,1,.26-.94c.2-.59.52-1.44.94-2.47a75.9,75.9,0,0,1,3.81-7.86,73.73,73.73,0,0,1,4.7-7.35c.66-.91,1.22-1.62,1.62-2.1A3.8,3.8,0,0,1,292.09,53.58Z" style="fill:#263238"></path><path d="M332.06,107.62a69.94,69.94,0,0,1-7.85,2.76,66.41,66.41,0,0,1-8,2.27,64.89,64.89,0,0,1,7.85-2.77A64.62,64.62,0,0,1,332.06,107.62Z" style="fill:#263238"></path><path d="M173.77,113.49a60.31,60.31,0,0,1-7.75-1.11,60.25,60.25,0,0,1-7.67-1.61,57.19,57.19,0,0,1,7.76,1.1A56.4,56.4,0,0,1,173.77,113.49Z" style="fill:#263238"></path></g><g id="freepik--Stars--inject-159"><path d="M177,80.79l1.48,5a2.49,2.49,0,0,0,1.69,1.69l5,1.48-5,1.48a2.49,2.49,0,0,0-1.69,1.69l-1.48,5-1.48-5a2.51,2.51,0,0,0-1.7-1.69l-5-1.48,5-1.48a2.51,2.51,0,0,0,1.7-1.69Z" style="fill:#BCA154"></path><path d="M284.68,28.58l1.47,5a2.5,2.5,0,0,0,1.7,1.7l5,1.48-5,1.47a2.5,2.5,0,0,0-1.7,1.7l-1.47,5-1.48-5a2.5,2.5,0,0,0-1.7-1.7l-5-1.47,5-1.48a2.5,2.5,0,0,0,1.7-1.7Z" style="fill:#BCA154"></path><path d="M178.35,127.26l.65,2.21a1.06,1.06,0,0,0,.74.74l2.21.65-2.21.65a1.06,1.06,0,0,0-.74.74l-.65,2.21-.65-2.21a1.1,1.1,0,0,0-.74-.74l-2.21-.65,2.21-.65a1.1,1.1,0,0,0,.74-.74Z" style="fill:#BCA154"></path><path d="M230.4,40.7l.64,2.2a1.13,1.13,0,0,0,.75.75l2.21.65-2.21.64a1.13,1.13,0,0,0-.75.75l-.64,2.21-.65-2.21a1.13,1.13,0,0,0-.75-.75l-2.2-.64,2.2-.65a1.13,1.13,0,0,0,.75-.75Z" style="fill:#BCA154"></path><path d="M321.31,85.14l1.15,3.91a2,2,0,0,0,1.32,1.32l3.91,1.15-3.91,1.14A2,2,0,0,0,322.46,94l-1.15,3.91L320.16,94a1.94,1.94,0,0,0-1.32-1.32l-3.91-1.14,3.91-1.15a1.94,1.94,0,0,0,1.32-1.32Z" style="fill:#BCA154"></path><path d="M323.56,133.31l.57,1.95a1,1,0,0,0,.66.66l1.95.58-1.95.57a1,1,0,0,0-.66.66l-.57,2-.58-2a1,1,0,0,0-.66-.66l-1.95-.57,1.95-.58a1,1,0,0,0,.66-.66Z" style="fill:#BCA154"></path></g><g id="freepik--hand-2--inject-159"><path d="M278,422.52s-3.92-4.39.5-11.45c0,0-7.39-16.2-7.43-16.3s-11.1,12.54,1.82,24.1Z" style="fill:#BCA154"></path><path d="M278,422.52s-3.92-4.39.5-11.45c0,0-7.39-16.2-7.43-16.3s-11.1,12.54,1.82,24.1Z" style="opacity:0.30000000000000004"></path><path d="M308.83,473.15c-2.46-.24-73.95-152.85-89.09-204S216.18,137.2,223.53,124c5.9-10.55,12.52-10.16,12.52-10.16s1.65-14.73,8.35-19.12a10.34,10.34,0,0,1,11-.22c9.46-10.87,21.78-3.2,22.57,7.9,0,0,10.48-11.43,19.8,7.22S316.4,188.5,316.4,188.5s0-25.89,17.38-24.87a2.48,2.48,0,0,1,2.25,1.89l3.31,22s5.16,18.12,8.65,24.14,9.75,63.74,7.43,69S335,327.52,333.29,335.94s-.58,14.45,2.91,19.26,49.49,68.61,49.49,68.61S363.57,478.57,308.83,473.15Z" style="fill:#ae7461"></path><path d="M323.33,252.44a5.63,5.63,0,0,1-.48-.7,18.2,18.2,0,0,1-1.12-2.16,25.89,25.89,0,0,1-1.87-8.72c-.27-3.78.2-8.27.54-13.22a54.25,54.25,0,0,0,.05-7.77c-.27-2.67-.64-5.46-1-8.3s-.9-5.59-1.55-8.21a40.81,40.81,0,0,1-1.35-7.71,54,54,0,0,1,.45-13.24,38.87,38.87,0,0,1,2.39-8.6,22.11,22.11,0,0,1,1-2.2,4.34,4.34,0,0,1,.41-.75,5.84,5.84,0,0,1-.31.79c-.2.52-.59,1.24-.92,2.24a40.67,40.67,0,0,0-2.21,8.58A55.65,55.65,0,0,0,317,195.6a41,41,0,0,0,1.37,7.64,82.75,82.75,0,0,1,1.58,8.26c.39,2.85.76,5.62,1,8.33a52.31,52.31,0,0,1-.07,7.84c-.37,5-.87,9.42-.65,13.17a26.81,26.81,0,0,0,1.69,8.66c.4,1,.76,1.7,1,2.19A4.49,4.49,0,0,1,323.33,252.44Z" style="fill:#6f4439"></path><path d="M286.44,277.44a2.11,2.11,0,0,1,.06-.5c.08-.38.17-.84.28-1.4s.29-1.36.53-2.21.46-1.83.83-2.89.71-2.22,1.2-3.44,1-2.51,1.6-3.86a70.32,70.32,0,0,1,4.59-8.42,71.32,71.32,0,0,1,5.78-7.65c1-1.08,1.93-2.14,2.88-3s1.82-1.76,2.65-2.49,1.62-1.37,2.31-1.93a21.64,21.64,0,0,1,1.81-1.37l1.17-.82a2.32,2.32,0,0,1,.43-.26s-.11.13-.37.34l-1.11.9c-.49.38-1.09.85-1.75,1.43s-1.44,1.21-2.24,2-1.7,1.58-2.6,2.53-1.83,2-2.82,3A75.93,75.93,0,0,0,296,255a72.42,72.42,0,0,0-4.59,8.33c-.6,1.33-1.19,2.6-1.64,3.82s-.89,2.35-1.25,3.4-.64,2-.9,2.85-.46,1.57-.61,2.17l-.37,1.39A1.64,1.64,0,0,1,286.44,277.44Z" style="fill:#6f4439"></path><path d="M333.25,338.81a8.56,8.56,0,0,1-.84,1.15c-.57.72-1.43,1.73-2.53,2.93a72,72,0,0,1-9.47,8.57,70.43,70.43,0,0,1-10.85,6.74c-1.46.73-2.66,1.28-3.51,1.62a6.71,6.71,0,0,1-1.34.48,7.84,7.84,0,0,1,1.25-.67c.82-.39,2-1,3.44-1.76a83.13,83.13,0,0,0,10.7-6.82,86.21,86.21,0,0,0,9.51-8.41c1.13-1.17,2-2.13,2.64-2.81A7,7,0,0,1,333.25,338.81Z" style="fill:#6f4439"></path><path d="M301.92,414.91a2.87,2.87,0,0,1-.26-.49c-.18-.38-.41-.85-.68-1.43l-2.45-5.3c-2.08-4.46-5-10.58-8.6-17.21s-7-12.5-9.54-16.71l-3.05-5-.82-1.36a2.91,2.91,0,0,1-.26-.49,2.3,2.3,0,0,1,.35.43l.9,1.31c.78,1.14,1.87,2.81,3.19,4.89,2.64,4.16,6.14,10,9.69,16.65s6.48,12.8,8.48,17.31c1,2.25,1.78,4.08,2.3,5.36.23.6.43,1.09.58,1.48A1.89,1.89,0,0,1,301.92,414.91Z" style="fill:#6f4439"></path><path d="M304.41,213a36.3,36.3,0,0,1-5.82,1.67,35.31,35.31,0,0,1-5.95,1.16,36.64,36.64,0,0,1,5.83-1.67A35.3,35.3,0,0,1,304.41,213Z" style="fill:#6f4439"></path><path d="M286.94,191.12a.73.73,0,0,1-.09-.22l-.21-.65c-.18-.58-.46-1.43-.77-2.54-.64-2.21-1.5-5.42-2.44-9.43a315,315,0,0,1-5.61-31.64c-1.56-12.47-2.21-23.85-1.87-32.09a54.6,54.6,0,0,1,1.11-9.68,14.77,14.77,0,0,1,1.12-3.4.61.61,0,0,1-.06.23q-.08.27-.21.66a8,8,0,0,0-.31,1.07,14.42,14.42,0,0,0-.34,1.48,58.34,58.34,0,0,0-.94,9.66,222.06,222.06,0,0,0,2,32c1.56,12.44,3.66,23.61,5.45,31.63.9,4,1.7,7.24,2.28,9.46.28,1.08.5,1.93.67,2.56.06.27.12.49.16.67S287,191.12,286.94,191.12Z" style="fill:#6f4439"></path><path d="M271.41,209.67a2,2,0,0,1-.14-.27l-.36-.81-1.33-3.15c-.29-.69-.6-1.46-.95-2.29s-.67-1.76-1-2.75c-.73-2-1.62-4.21-2.43-6.74-.43-1.26-.87-2.58-1.33-4s-.85-2.83-1.31-4.33c-.93-3-1.73-6.22-2.62-9.62-1.66-6.83-3.19-14.41-4.34-22.44s-1.7-15.75-2-22.77c-.08-3.52-.2-6.86-.12-10,0-1.56,0-3.07.07-4.52s.13-2.84.19-4.17c.08-2.65.32-5.05.48-7.15.08-1,.17-2,.24-2.93s.2-1.72.29-2.46c.17-1.44.31-2.58.41-3.39l.12-.89a1.19,1.19,0,0,1,.06-.29,1.69,1.69,0,0,1,0,.3c0,.23,0,.52-.07.89-.07.81-.18,2-.31,3.4q-.1,1.11-.24,2.46c-.06.9-.13,1.88-.2,2.93-.13,2.1-.35,4.5-.41,7.15,0,1.32-.09,2.71-.15,4.16s0,3,0,4.51c-.06,3.12.07,6.45.17,10,.31,7,.92,14.7,2,22.72s2.66,15.57,4.28,22.4c.88,3.39,1.66,6.63,2.58,9.61.44,1.5.84,2.95,1.28,4.33s.87,2.7,1.29,4c.78,2.53,1.65,4.77,2.35,6.76l1,2.76c.33.84.63,1.61.91,2.3l1.24,3.19.31.83A1.14,1.14,0,0,1,271.41,209.67Z" style="fill:#6f4439"></path><path d="M241.72,215.78a1.23,1.23,0,0,1-.07-.27c-.05-.22-.1-.49-.17-.82-.13-.76-.32-1.82-.57-3.16-.49-2.74-1.14-6.72-1.87-11.65s-1.51-10.81-2.25-17.36-1.31-13.77-1.7-21.37a310.79,310.79,0,0,1,.45-38.93c.39-5,.79-9,1.15-11.74.17-1.35.31-2.42.4-3.19l.12-.82a1,1,0,0,1,.06-.28,1.07,1.07,0,0,1,0,.29c0,.21,0,.49-.07.83-.08.77-.18,1.83-.31,3.19-.3,2.77-.64,6.78-1,11.75a337.49,337.49,0,0,0-.29,38.88c.39,7.58,1,14.79,1.66,21.34s1.43,12.43,2.13,17.36,1.29,8.91,1.71,11.67c.21,1.35.36,2.41.48,3.17,0,.34.08.61.11.83A1.18,1.18,0,0,1,241.72,215.78Z" style="fill:#6f4439"></path><path d="M314.22,201.49l-.22.07-.67.14-2.59.51c-2.25.43-5.51,1.06-9.52,1.89-8,1.63-19.08,4.08-31.15,7.34-6,1.64-11.73,3.35-16.89,5s-9.76,3.27-13.58,4.76c-1.92.71-3.63,1.4-5.14,2s-2.81,1.13-3.85,1.6l-2.43,1-.63.25-.23.08a.93.93,0,0,1,.2-.12l.62-.31,2.39-1.12c1-.5,2.32-1.06,3.82-1.69s3.21-1.36,5.12-2.1c3.81-1.53,8.42-3.14,13.56-4.87s10.87-3.39,16.9-5c12.09-3.26,23.16-5.65,31.22-7.19,4-.79,7.29-1.36,9.55-1.73l2.61-.41.68-.09A.8.8,0,0,1,314.22,201.49Z" style="fill:#6f4439"></path><path d="M342.69,363.73S352.8,368.6,356,375.07s2.67,11.21,2.67,11.21l-.83,5.51a44.69,44.69,0,0,1-9.17,17.11,76.66,76.66,0,0,1-45.56,24.49,41.92,41.92,0,0,1-13.18,0c-7.53-1.27-12.89-4.38-16.54-10.47-1.61-2.33-6.17-11.23-6.26-12.63l1.68,3c4.93,6.89,9,8.45,15.25,9.9s13.17.79,19.57-.75a71.45,71.45,0,0,0,38.26-23.94c4-4.83,7.35-10.4,8.26-16.59C350.11,381.93,352.09,371.83,342.69,363.73Z" style="fill:#BCA154"></path><g style="opacity:0.2"><path d="M320.67,216.7c-.23-9-6.09-20.41-4.2-29.19-2.93,3.74-3.05,9-2.16,13.64s2.67,9.16,3.08,13.89-.59,9.66-.82,14.5.52,10.07,3.8,13.63C319.32,234.1,320.93,226.88,320.67,216.7Z"></path></g><path d="M301.68,154.39a6.58,6.58,0,0,1-1.77,1A32.84,32.84,0,0,1,295.3,157a32,32,0,0,1-4.8,1,7.06,7.06,0,0,1-2,.09c0-.16,3-.53,6.69-1.56S301.62,154.25,301.68,154.39Z" style="fill:#6f4439"></path><path d="M297.23,129.37a5.88,5.88,0,0,1-1.73,1.3,14.74,14.74,0,0,1-10.16,1.63,6,6,0,0,1-2-.69,18.29,18.29,0,0,0,13.94-2.24Z" style="fill:#6f4439"></path><path d="M304.17,159.35a49.73,49.73,0,0,1-7,1.74,49.85,49.85,0,0,1-7.07,1.23,49.73,49.73,0,0,1,7-1.74A48,48,0,0,1,304.17,159.35Z" style="fill:#6f4439"></path><g style="opacity:0.2"><path d="M305.1,157.22c-.65-1.4-2.4-1.82-3.92-2.06l-.69-.38a16.11,16.11,0,0,0-11,1.44,6.5,6.5,0,0,0-2.3,1.82,3,3,0,0,0-.45,2.8c.5,1.2,1.88,1.75,3.15,2a20.66,20.66,0,0,0,11.55-.65,7.18,7.18,0,0,0,3-1.78A3.11,3.11,0,0,0,305.1,157.22Z" style="fill:#6f4439"></path></g><path d="M274.38,158.39a6.77,6.77,0,0,1-1.78,1A33.12,33.12,0,0,1,268,161a32.54,32.54,0,0,1-4.8,1,6.62,6.62,0,0,1-2,.09c0-.16,3.05-.52,6.69-1.55S274.31,158.25,274.38,158.39Z" style="fill:#6f4439"></path><path d="M276.87,163.35a49.73,49.73,0,0,1-7,1.74,50.83,50.83,0,0,1-7.08,1.24,47.32,47.32,0,0,1,7-1.75A49.85,49.85,0,0,1,276.87,163.35Z" style="fill:#6f4439"></path><g style="opacity:0.2"><path d="M277.8,161.22c-.65-1.4-2.41-1.81-3.93-2.06l-.68-.38a16.1,16.1,0,0,0-11,1.44,6.53,6.53,0,0,0-2.3,1.83,3,3,0,0,0-.46,2.79c.5,1.21,1.89,1.75,3.16,2a20.62,20.62,0,0,0,11.54-.65,7,7,0,0,0,3-1.78A3.11,3.11,0,0,0,277.8,161.22Z" style="fill:#6f4439"></path></g><path d="M253.57,162a6.44,6.44,0,0,1-1.78,1,31.88,31.88,0,0,1-4.6,1.67,32.54,32.54,0,0,1-4.8,1,6.62,6.62,0,0,1-2,.09c0-.16,3-.52,6.69-1.55S253.5,161.89,253.57,162Z" style="fill:#6f4439"></path><path d="M256.06,167a49.73,49.73,0,0,1-7,1.74A50.83,50.83,0,0,1,242,170a48.87,48.87,0,0,1,7-1.75A49.85,49.85,0,0,1,256.06,167Z" style="fill:#6f4439"></path><g style="opacity:0.2"><path d="M257,164.86c-.65-1.4-2.41-1.81-3.93-2.06l-.68-.37a16,16,0,0,0-11,1.43,6.55,6.55,0,0,0-2.3,1.83,3,3,0,0,0-.46,2.79c.5,1.21,1.89,1.75,3.16,2.05a20.62,20.62,0,0,0,11.54-.65,6.86,6.86,0,0,0,3-1.78A3.11,3.11,0,0,0,257,164.86Z" style="fill:#6f4439"></path></g><path d="M348.79,214.66a31.91,31.91,0,0,1-5.55,1.38,31.4,31.4,0,0,1-5.65.86,64.09,64.09,0,0,1,11.2-2.24Z" style="fill:#6f4439"></path><path d="M345.35,211.51a6.93,6.93,0,0,1-2.5.75,6.47,6.47,0,0,1-2.6.23,6.81,6.81,0,0,1,2.5-.74A6.59,6.59,0,0,1,345.35,211.51Z" style="fill:#6f4439"></path><g style="opacity:0.2"><path d="M339,186c-.66.89-2.34,1.47-3.17.73a5.57,5.57,0,0,1-1.45-2.94,48.25,48.25,0,0,1-1.37-14.37,5.79,5.79,0,0,1,.69-2.88,2.18,2.18,0,0,1,2.57-1Z" style="fill:#fff"></path></g></g><g id="freepik--hand-1--inject-159"><path d="M260,369.43c9.83-6,16.31-16.34,19.91-27.25s4.64-22.47,5.84-33.9Q289,278,293.79,248s-1.53-29.33-4.56-50.36-7.77-40-9.44-39-24,201.6-24,201.6Z" style="opacity:0.2"></path><path d="M243.93,95.79a20,20,0,0,1,2,8.7,15.5,15.5,0,0,1,9.8-.09,13.1,13.1,0,0,1,7.44,6.26c1.28,2.47,1.65,5.28,2.06,8a218.46,218.46,0,0,0,4.86,23.49H253.64l-14.73-18.79-2.86-9.51C237.62,104.79,239.8,97.46,243.93,95.79Z" style="opacity:0.2"></path><path d="M234.67,450.38s14-6-2.47-10.46S198.45,438,198.45,438l21.1,11.75Z" style="fill:#BCA154"></path><path d="M234.67,450.38s14-6-2.47-10.46S198.45,438,198.45,438l21.1,11.75Z" style="opacity:0.30000000000000004"></path><path d="M93.77,233.45s-11.13,3.05-5.23,13.74c4.32,7.83,8.88,16.17,11.42,28.58,1.12,5.52,7.7,12.15,9.86,16.64,5.79,12.07,11.15,22.11,19.84,32.25s35.72,28,35.23,40.55-35.1,92.38-35.1,92.38c27.13,16.53,58.35,21.84,91.71,21.24,0,0,24-87.08,27.38-100.59s16.57-24.85,25.26-45.12,11.43-64.09,12.4-98.73c.81-29-5.64-60.64-5.77-70.39a35.39,35.39,0,0,0-1.91-11.32c-2.08-5.88-6.33-12.63-14.88-12.08,0,0,.1-26.33-4.33-35.42-1.63-3.33-7.16-5.33-11.4-4.3a18.29,18.29,0,0,0-5.92,2.7s2.11-20.94-8.51-22.87c-4.84-.88-9.44-.17-12.21,4-3.3,5-4.72,13-5.24,21.63,0,0-1.05-5.2-9.57-5.2-5.45,0-9.71,4.07-12,12.59C191,128.2,173,212.21,169.72,222.81c-2.27,7.44-19.79,59.37-24.62,59.37s-9.88-4.35-12.77-12.07S114.52,227.17,93.77,233.45Z" style="fill:#ffbf9d"></path><path d="M193.45,222.22l.18-.26.56-.74,2.14-2.87c.92-1.25,2-2.79,3.25-4.62a47.53,47.53,0,0,0,3.74-6.44,13.65,13.65,0,0,0,1.11-4.14c.24-1.49.4-3.06.58-4.68.36-3.24.65-6.72,1-10.37.61-7.32,1.28-15.36,2-23.8q.28-3.17.61-6.25a53.89,53.89,0,0,1,.92-6c.78-3.9,1.31-7.73,1.87-11.35,1-7.26,2-13.79,2.79-19.3s1.4-9.91,1.84-13c.23-1.5.4-2.69.52-3.53.06-.38.11-.69.15-.92a1.49,1.49,0,0,1,.07-.31,1.54,1.54,0,0,1,0,.32c0,.23-.05.54-.09.92-.1.85-.24,2-.42,3.55-.4,3.12-1,7.56-1.68,13s-1.62,12.06-2.68,19.32c-.55,3.63-1.07,7.44-1.85,11.39a52.33,52.33,0,0,0-.9,6c-.23,2-.42,4.13-.61,6.24-.72,8.44-1.4,16.47-2,23.79-.33,3.66-.64,7.13-1,10.38-.19,1.62-.37,3.19-.61,4.69a14.06,14.06,0,0,1-1.17,4.23,47.31,47.31,0,0,1-3.84,6.46c-1.25,1.82-2.39,3.34-3.33,4.58s-1.7,2.17-2.22,2.8l-.6.71C193.53,222.15,193.46,222.23,193.45,222.22Z" style="fill:#ff9a6c"></path><path d="M266,140.39s-.08.05-.25.12l-.76.29c-.33.13-.7.36-1.16.6a9,9,0,0,0-1.4,1.1,11.12,11.12,0,0,0-2.63,4.08,22.94,22.94,0,0,0-1.38,6.34c-.47,4.82,0,10.61.76,17,.35,3.19.93,6.51,1,10.05,0,1.75,0,3.53-.13,5.35a42.5,42.5,0,0,1-.84,5.45c-.34,1.82-.68,3.62-.84,5.4s-.21,3.56-.22,5.3c0,3.49.13,6.85.28,10.06s.34,6.25.49,9.11.09,5.53,0,8c-.19,4.86-.47,8.78-.67,11.49-.11,1.32-.19,2.37-.25,3.12l-.09.81a1.14,1.14,0,0,1,0,.27,1.16,1.16,0,0,1,0-.28l0-.81c0-.75.09-1.8.16-3.12.14-2.72.36-6.64.5-11.49.06-2.43.12-5.08-.06-7.93s-.35-5.9-.54-9.11-.31-6.58-.31-10.08c0-1.75.05-3.54.21-5.35s.5-3.63.84-5.45a41.27,41.27,0,0,0,.85-5.39c.12-1.79.13-3.56.13-5.31-.07-3.45-.64-6.8-1-10-.75-6.38-1.17-12.2-.65-17.07a23,23,0,0,1,1.48-6.41,11.27,11.27,0,0,1,2.76-4.12,9.49,9.49,0,0,1,1.46-1.09c.48-.22.86-.44,1.2-.56l.79-.25A.88.88,0,0,1,266,140.39Z" style="fill:#ff9a6c"></path><path d="M231.63,225.06a2.79,2.79,0,0,1-.18-.43c-.11-.31-.26-.73-.44-1.26-.4-1.16-1-2.82-1.7-5v0c.45-5,1.15-12.66,2-22,.21-2.35.47-4.8.66-7.34s.29-5.19.43-7.91a74.85,74.85,0,0,1,.73-8.41,20.62,20.62,0,0,1,.49-2.14c.09-.35.24-.7.36-1.05l.36-1c.39-1.4.67-2.85.94-4.31.7-4.18,1.18-8.31,1.56-12.3s.66-7.85.78-11.53A170.31,170.31,0,0,1,239,120.81a130.33,130.33,0,0,1,2.11-13,21.33,21.33,0,0,1,1-3.45,4.24,4.24,0,0,1,.46-.82,1.3,1.3,0,0,1,.23-.23,1.66,1.66,0,0,1-.19.26,5.44,5.44,0,0,0-.4.83,23.3,23.3,0,0,0-.93,3.45c-.65,3-1.33,7.51-1.95,13a179.55,179.55,0,0,0-1.27,19.52c-.11,3.7-.39,7.56-.76,11.57s-.84,8.13-1.55,12.34a42.87,42.87,0,0,1-1,4.36c-.24.73-.51,1.4-.72,2.07a18.4,18.4,0,0,0-.47,2.08,75.24,75.24,0,0,0-.74,8.34c-.14,2.72-.26,5.37-.45,7.93s-.48,5-.7,7.34c-.94,9.34-1.7,17-2.21,22v0l1.58,5c.17.54.3,1,.39,1.28A2.29,2.29,0,0,1,231.63,225.06Z" style="fill:#ff9a6c"></path><path d="M251.63,179.4s-.11.2-.46.35a3.93,3.93,0,0,1-1.53.17,36.16,36.16,0,0,1-5-.41,37.19,37.19,0,0,1-4.86-1.06,6.74,6.74,0,0,1-1.94-.73c.05-.14,3.07.71,6.88,1.27,1.9.29,3.64.46,4.9.56a4.59,4.59,0,0,0,1.45,0C251.44,179.48,251.6,179.37,251.63,179.4Z" style="fill:#ff9a6c"></path><path d="M254,185.22a10.06,10.06,0,0,1-2.64.25,35.6,35.6,0,0,1-12.6-2.06,11.13,11.13,0,0,1-2.43-1.08,17,17,0,0,1,2.54.73,51.75,51.75,0,0,0,6.18,1.43,49.1,49.1,0,0,0,6.31.61A19.83,19.83,0,0,1,254,185.22Z" style="fill:#ff9a6c"></path><path d="M254,173.68c-.05.15-3.56-.92-8-1.3s-8.13,0-8.14-.15a9.31,9.31,0,0,1,2.37-.39,34.2,34.2,0,0,1,5.82,0,33.83,33.83,0,0,1,5.72,1A8.71,8.71,0,0,1,254,173.68Z" style="fill:#ff9a6c"></path><path d="M278.12,202.24a7.31,7.31,0,0,1-2.05.65,27.46,27.46,0,0,1-5.17.62,27,27,0,0,1-5.19-.37,6.85,6.85,0,0,1-2.09-.55c0-.16,3.25.52,7.27.4S278.08,202.08,278.12,202.24Z" style="fill:#ff9a6c"></path><path d="M274.14,199.67a20.6,20.6,0,0,1-4.62,0,20.14,20.14,0,0,1-4.59-.55,20.87,20.87,0,0,1,4.62,0A20.58,20.58,0,0,1,274.14,199.67Z" style="fill:#ff9a6c"></path><path d="M273.57,207.36a5.8,5.8,0,0,1-2.8.58,5.57,5.57,0,0,1-2.84-.37,13.92,13.92,0,0,1,2.82-.15A13.28,13.28,0,0,1,273.57,207.36Z" style="fill:#ff9a6c"></path><path d="M226.94,165.63a16,16,0,0,1-6.08.53,16.36,16.36,0,0,1-6-1.27c0-.16,2.67.56,6,.75S226.92,165.48,226.94,165.63Z" style="fill:#ff9a6c"></path><path d="M227.32,170.54a7.35,7.35,0,0,1-2.21.77,21.51,21.51,0,0,1-11.22-.33,7,7,0,0,1-2.16-.9,38.07,38.07,0,0,0,7.76,1.29A39.48,39.48,0,0,0,227.32,170.54Z" style="fill:#ff9a6c"></path><path d="M230.17,160.9c-.06.07-.76-.53-2.06-1.16a19.78,19.78,0,0,0-5.42-1.63c-2.19-.37-4.22-.6-5.67-.92a7.61,7.61,0,0,1-2.29-.68,17.53,17.53,0,0,1,2.36.32c1.44.22,3.46.39,5.69.77a17,17,0,0,1,5.5,1.81A5.5,5.5,0,0,1,230.17,160.9Z" style="fill:#ff9a6c"></path><path d="M194,171.64a21.47,21.47,0,0,1-8.84,0,31.39,31.39,0,0,1,4.42-.06A31.47,31.47,0,0,1,194,171.64Z" style="fill:#ff9a6c"></path><path d="M197.39,176.28a3.71,3.71,0,0,1-1.49.65,15.42,15.42,0,0,1-3.89.59,19.36,19.36,0,0,1-5.5-.48c0-.18,2.48,0,5.48,0A35.86,35.86,0,0,0,197.39,176.28Z" style="fill:#ff9a6c"></path><g style="opacity:0.2"><path d="M213.46,108.15a17.89,17.89,0,0,1-1.18,6.85c-.88,2.3-1.72,3.64-3.61,4.63a6.9,6.9,0,0,1-4.13.64,5.51,5.51,0,0,1-4-2.13,11.36,11.36,0,0,1-1.49-4.89,10.56,10.56,0,0,1,.15-5.42,6.08,6.08,0,0,1,2.3-2.71c3.15-2.16,6.43-1.76,10.06-.6a2.4,2.4,0,0,1,1.5,1.57A6.92,6.92,0,0,1,213.46,108.15Z" style="fill:#fff"></path></g><g style="opacity:0.2"><path d="M256.81,108.15a17.88,17.88,0,0,1-1.17,6.85c-.89,2.3-1.72,3.64-3.62,4.63a6.87,6.87,0,0,1-4.12.64,5.53,5.53,0,0,1-4-2.13,11.36,11.36,0,0,1-1.49-4.89,10.79,10.79,0,0,1,.15-5.42,6.14,6.14,0,0,1,2.3-2.71c3.16-2.16,6.43-1.76,10.07-.6a2.45,2.45,0,0,1,1.5,1.57A6.62,6.62,0,0,1,256.81,108.15Z" style="fill:#fff"></path></g><g style="opacity:0.2"><path d="M260.59,149.81a17.88,17.88,0,0,0,1.17,6.85c.89,2.3,1.73,3.64,3.62,4.63a6.88,6.88,0,0,0,4.12.64,5.53,5.53,0,0,0,4-2.13,11.36,11.36,0,0,0,1.49-4.89,10.79,10.79,0,0,0-.15-5.42,6.09,6.09,0,0,0-2.3-2.71c-3.15-2.16-6.43-1.76-10.07-.6a2.41,2.41,0,0,0-1.49,1.57A6.62,6.62,0,0,0,260.59,149.81Z" style="fill:#fff"></path></g><g style="opacity:0.2"><path d="M238.27,89.11a17.13,17.13,0,0,1-1.33,7.25c-1,2.44-2,3.84-4.21,4.89a8.93,8.93,0,0,1-4.84.64,6.84,6.84,0,0,1-4.72-2.28,11.37,11.37,0,0,1-1.79-5.2c-.32-1.91-.63-4,.14-5.74a6.49,6.49,0,0,1,2.68-2.85c3.69-2.27,7.54-1.82,11.82-.56a2.74,2.74,0,0,1,1.77,1.67A6.82,6.82,0,0,1,238.27,89.11Z" style="fill:#fff"></path></g><path d="M142.84,292.41a4.69,4.69,0,0,1-.13-1.62,20.92,20.92,0,0,1,.32-3.94,11.17,11.17,0,0,1,1.34-3.73c.53-.88,1-1.31,1-1.27a11.28,11.28,0,0,1-.73,1.44,14.66,14.66,0,0,0-1.15,3.66C143,289.92,143,292.42,142.84,292.41Z" style="fill:#ff9a6c"></path><path d="M168.57,344.87c-.1.11-5.78-5.07-12.7-11.56s-12.44-11.84-12.34-11.94,5.78,5.07,12.7,11.56S168.67,344.77,168.57,344.87Z" style="fill:#ff9a6c"></path><path d="M113.09,271.19c.06.15-2.41,1-5.09,2.73s-4.53,3.56-4.64,3.44a14.37,14.37,0,0,1,4.36-3.88A14.22,14.22,0,0,1,113.09,271.19Z" style="fill:#ff9a6c"></path><path d="M119.15,269a3.62,3.62,0,0,1-.37,2.74,11.76,11.76,0,0,1-1.64,2.54,33,33,0,0,1-2.46,2.75,30.74,30.74,0,0,1-5.22,4.16,10.27,10.27,0,0,1-2.45,1.29,24.3,24.3,0,0,1,2.25-1.59,40.56,40.56,0,0,0,5-4.23,25.17,25.17,0,0,0,4.14-5.08A6.74,6.74,0,0,0,119.15,269Z" style="fill:#ff9a6c"></path><path d="M107.65,265.12a32.49,32.49,0,0,1-3.49,3.22,33.19,33.19,0,0,1-3.6,3.11,16.23,16.23,0,0,1,3.25-3.49A16.47,16.47,0,0,1,107.65,265.12Z" style="fill:#ff9a6c"></path><path d="M95.25,256.25c.48.16,9.88-5.55,8.76-8.88s-7.55-12.28-11-11.92-5.16,3.33-4.85,7.14S95.25,256.25,95.25,256.25Z" style="fill:#fff;opacity:0.2"></path><g style="opacity:0.2"><path d="M205.09,199.08l6.64-61.76C205.52,156.51,203.65,178.74,205.09,199.08Z"></path></g><g style="opacity:0.2"><path d="M230.14,207.66a230.62,230.62,0,0,1,7.17-62.83c.45,5.56-1.05,15.24-2.48,21.86-.74,3.41-1.6,4.14-1.88,7-1.79,18.22-1.39,22.57-2.81,34"></path></g><path d="M145.05,461.12s31.79-88,30.45-102.71-10.1-16.51-19.45-25.29-44.68-37.82-44.92-38c5.31,10.88,10.49,20.19,18.53,29.56,8.68,10.14,35.72,28,35.23,40.55s-35.1,92.38-35.1,92.38Z" style="fill:#ff9a6c;opacity:0.4"></path><g style="opacity:0.4"><path d="M258.62,230.57a231.28,231.28,0,0,1-.67-65.84,60.17,60.17,0,0,1,1.52,17.54c-.33,5.5-1.42,10.93-1.92,16.41-.81,8.84-.08,17.73.65,26.56" style="fill:#ff9a6c"></path></g><g style="opacity:0.2"><path d="M247.26,172.48A7.17,7.17,0,0,0,239,184.19a12.05,12.05,0,0,0,6.43,2,13.93,13.93,0,0,0,5.11-.3,6.27,6.27,0,0,0,4-3.07,6.66,6.66,0,0,0-.86-6.45,10.14,10.14,0,0,0-8.58-4.37" style="fill:#ff9a6c"></path></g><g style="opacity:0.2"><path d="M195.36,169a7.17,7.17,0,0,0-8.26,11.71,12.05,12.05,0,0,0,6.43,2,14,14,0,0,0,5.12-.3,6.25,6.25,0,0,0,3.94-3.08,6.62,6.62,0,0,0-.85-6.44,10.13,10.13,0,0,0-8.59-4.37" style="fill:#ff9a6c"></path></g><g style="opacity:0.2"><path d="M222.66,157.84c-3.07-2.52-7.65-1.39-9.76,2.41s-1.4,9.65,1.5,12.48a10.45,10.45,0,0,0,6.43,2.57,11.11,11.11,0,0,0,5.12-.39,6.72,6.72,0,0,0,3.94-3.9,10.31,10.31,0,0,0-.86-8.19c-1.87-3.52-5.23-5.69-8.58-5.54" style="fill:#ff9a6c"></path></g><g style="opacity:0.2"><path d="M272.69,196.42a7.17,7.17,0,0,0-8.26,11.72,12.14,12.14,0,0,0,6.44,2,13.93,13.93,0,0,0,5.11-.3,6.29,6.29,0,0,0,3.95-3.07,6.66,6.66,0,0,0-.86-6.45,10.15,10.15,0,0,0-8.59-4.36" style="fill:#ff9a6c"></path></g><g style="opacity:0.30000000000000004"><path d="M212.41,113.5s0,.31-.18.84a14.37,14.37,0,0,1-.86,2.17,9,9,0,0,1-2.08,2.83,6,6,0,0,1-4,1.47,6.16,6.16,0,0,1-4-1.55,6.93,6.93,0,0,1-1.92-2.94,6.8,6.8,0,0,1-.38-2.33,2,2,0,0,1,.12-.86,11.15,11.15,0,0,0,.6,3.06,7.12,7.12,0,0,0,1.9,2.71,5.8,5.8,0,0,0,3.71,1.39A5.61,5.61,0,0,0,209,119a8.94,8.94,0,0,0,2.06-2.63C212,114.64,212.33,113.46,212.41,113.5Z" style="fill:#fff"></path></g><g style="opacity:0.30000000000000004"><path d="M237.65,93a3.43,3.43,0,0,1-.15,1,15.48,15.48,0,0,1-.9,2.75,11.75,11.75,0,0,1-2.4,3.58,8.21,8.21,0,0,1-4.73,2.35,6.31,6.31,0,0,1-5.07-1.4,7.94,7.94,0,0,1-2.22-3.7,17.28,17.28,0,0,1-.6-2.83,4.15,4.15,0,0,1-.08-1c.11,0,.28,1.49,1,3.76a7.84,7.84,0,0,0,2.19,3.46,5.9,5.9,0,0,0,4.68,1.24,7.8,7.8,0,0,0,4.46-2.18,11.73,11.73,0,0,0,2.4-3.39C237.29,94.42,237.55,92.92,237.65,93Z" style="fill:#ff9a6c"></path></g><g style="opacity:0.30000000000000004"><path d="M257,111.56c.06,0-.44,1.18-1,3.16a15.1,15.1,0,0,1-1.35,3.38,5.56,5.56,0,0,1-3.58,2.67,6.67,6.67,0,0,1-4.45-.54,8.11,8.11,0,0,1-2.77-2.4,9,9,0,0,1-1.16-2.16,2.43,2.43,0,0,1-.23-.87,19.23,19.23,0,0,0,1.69,2.8,7.92,7.92,0,0,0,2.68,2.2,6.35,6.35,0,0,0,4.12.46,5.12,5.12,0,0,0,3.29-2.42,16.51,16.51,0,0,0,1.41-3.24A10.22,10.22,0,0,1,257,111.56Z" style="fill:#fff"></path></g><g style="opacity:0.30000000000000004"><path d="M275.52,152.6a3.05,3.05,0,0,1,0,.87,18.3,18.3,0,0,1-.38,2.34,10.43,10.43,0,0,1-1.32,3.28,6.69,6.69,0,0,1-7.79,2.68,6.48,6.48,0,0,1-2.89-2.08,6.05,6.05,0,0,1-1.12-2.11,2,2,0,0,1-.14-.86,9.18,9.18,0,0,0,1.54,2.73,6.2,6.2,0,0,0,6.8,1.83,6.26,6.26,0,0,0,3.2-2.45,10.51,10.51,0,0,0,1.36-3.12C275.25,153.81,275.43,152.59,275.52,152.6Z" style="fill:#fff"></path></g><path d="M96.11,237c0,.08-.62-.22-1.62-.37a6.19,6.19,0,0,0-3.79.64,6.12,6.12,0,0,0-2.58,2.85c-.41.93-.47,1.58-.55,1.57a2.83,2.83,0,0,1,.21-1.71,5.73,5.73,0,0,1,6.78-3.71A3,3,0,0,1,96.11,237Z" style="fill:#ff9a6c"></path><path d="M141.33,427.49l-11.54,30.1c49.74,30.92,96.67,21.28,96.67,21.28l12.87-31.63C206.78,451.14,172.77,446,141.33,427.49Z" style="fill:#BCA154"></path><path d="M156.76,456.11a6.31,6.31,0,1,1-3.24-8.31A6.31,6.31,0,0,1,156.76,456.11Z" style="opacity:0.2"></path><path d="M157.29,451.1a6.31,6.31,0,1,1-6.31-6.3A6.31,6.31,0,0,1,157.29,451.1Z" style="fill:#fff"></path><path d="M156.07,451.19a9.4,9.4,0,0,0-.2-1.22,5,5,0,0,0-6.52-3.42,4.94,4.94,0,1,0,6.52,5.86,9.12,9.12,0,0,0,.2-1.22,3.88,3.88,0,0,1-.12,1.24,5,5,0,0,1-1.82,2.83,5.13,5.13,0,1,1,0-8.13A5,5,0,0,1,156,450,3.88,3.88,0,0,1,156.07,451.19Z" style="fill:#263238"></path><circle cx="150.76" cy="449.43" r="1.12" style="fill:#263238"></circle><path d="M152.29,453.36a1.12,1.12,0,1,1-1.12-1.13A1.12,1.12,0,0,1,152.29,453.36Z" style="fill:#263238"></path></g></svg>
